{"title":"Afrojack - SummerThing! ft. Mike Taylor Full HD 1080p - truHD HE","uid":12242084,"size":65857304,"categoryP":"video","categoryS":"music_videos","magnet":"?xt=urn:btih:075315d287beea311f5d3f5b03ce1bdee85da9eb&amp;dn=Afrojack+-+SummerThing%21+ft.+Mike+Taylor+Full+HD+1080p+-+truHD+HE&amp;tr=udp%3A%2F%2Ftracker.openbittorrent.com%3A80&amp;tr=udp%3A%2F%2Fopen.demonii.com%3A1337&amp;tr=udp%3A%2F%2Ftracker.coppersurfer.tk%3A6969&amp;tr=udp%3A%2F%2Fexodus.desync.com%3A6969","seeders":6,"leechers":1,"uploader":"Aainul","files":2,"time":1439808706,"description":"Seeding From HIGH SPEED Seedbox\n\nAfrojack - SummerThing! ft. Mike Taylor Full HD 1080p - truHD HEVC\n\n\nSource : VEVO/ Vevo TV\n\nSource File Info:\n\nGeneral\nFormat : MPEG-4\nFormat profile : Base Media\nCodec ID : isom\nFile size : 97.2 MiB\nDuration : 4mn 33s\nOverall bit rate : 2 979 Kbps\nWriting application : Lavf54.29.104\n\nVideo\nID : 1\nFormat : AVC\nFormat/Info : Advanced Video Codec\nFormat profile : &lt;a class=&quot;__cf_email__&quot; href=&quot;/cdn-cgi/l/email-protection&quot; data-cfemail=&quot;e8a0818f80a8a4dcc6d8&quot;&gt;[email&amp;#160;protected]&lt;/a&gt;&lt;script data-cfhash='f9e31' type=&quot;text/javascript&quot;&gt;\n/* &lt;![CDATA[ */!function(){try{var t=&quot;currentScript&quot;in document?document.currentScript:function(){for(var t=document.getElementsByTagName(&quot;script&quot;),e=t.length;e--;)if(t[e].getAttribute(&quot;data-cfhash&quot;))return t[e]}();if(t&amp;&amp;t.previousSibling){var e,r,n,i,c=t.previousSibling,a=c.getAttribute(&quot;data-cfemail&quot;);if(a){for(e=&quot;&quot;,r=parseInt(a.substr(0,2),16),n=2;a.length-n;n+=2)i=parseInt(a.substr(n,2),16)^r,e+=String.fromCharCode(i);e=document.createTextNode(e),c.parentNode.replaceChild(e,c)}t.parentNode.removeChild(t);}}catch(u){}}()/* ]]&gt; */&lt;/script&gt;\nFormat settings, CABAC : Yes\nFormat settings, ReFrames : 3 frames\nCodec ID : avc1\nCodec ID/Info : Advanced Video Coding\nDuration : 4mn 33s\nBit rate : 2 847 Kbps\nWidth : 1 920 pixels\nHeight : 1 080 pixels\nDisplay aspect ratio : 16:9\nFrame rate mode : Variable\nFrame rate : 23.976 fps\nMinimum frame rate : 23.974 fps\nMaximum frame rate : 23.981 fps\nColor space : YUV\nChroma subsampling : 4:2:0\nBit depth : 8 bits\nScan type : Progressive\nBits/(Pixel*Frame) : 0.057\nStream size : 92.9 MiB (96%)\n\nAudio\nID : 2\nFormat : AAC\nFormat/Info : Advanced Audio Codec\nFormat profile : LC\nCodec ID : 40\nDuration : 4mn 33s\nBit rate mode : Constant\nBit rate : 126 Kbps\nChannel(s) : 2 channels\nChannel positions : Front: L R\nSampling rate : 44.1 KHz\nCompression mode : Lossy\nStream size : 4.10 MiB (4%)\n\nEncoder: truHD HEVC Encodes\n\n\nEncoded File Info:\n\nGeneral\nFormat : MPEG-4\nFormat profile : Base Media\nCodec ID : isom\nFile size : 62.6 MiB\nDuration : 4mn 33s\nOverall bit rate mode : Variable\nOverall bit rate : 1 919 Kbps\nWriting application : Lavf55.33.100\n\nVideo\nID : 2\nFormat : HEVC\nFormat/Info : High Efficiency Video Coding\nCodec ID : hvc1\nCodec ID/Info : High Efficiency Video Coding\nDuration : 4mn 33s\nDuration_FirstFrame : -23ms\nBit rate : 1 790 Kbps\nWidth : 1 920 pixels\nHeight : 1 080 pixels\nDisplay aspect ratio : 16:9\nFrame rate mode : Constant\nFrame rate : 23.976 fps\nBits/(Pixel*Frame) : 0.036\nStream size : 58.4 MiB (93%)\n\nAudio\nID : 1\nFormat : AAC\nFormat/Info : Advanced Audio Codec\nFormat profile : LC\nCodec ID : 40\nDuration : 4mn 33s\nBit rate mode : Variable\nBit rate : 125 Kbps\nMaximum bit rate : 128 Kbps\nChannel(s) : 2 channels\nChannel positions : Front: L R\nSampling rate : 44.1 KHz\nCompression mode : Lossy\nStream size : 4.08 MiB (7%)\n\n\nScreenShots:\n &lt;a href=&quot;\nhttps://yuq.me/users/36/459/dl5pIGLjtD.jpg&quot; rel=&quot;nofollow&quot; target=&quot;_NEW&quot;&gt;\nhttps://yuq.me/users/36/459/dl5pIGLjtD.jpg&lt;/a&gt;\n\nLike Us On FB And Request Accepted @\n\nKing Regards\ntruHD HEVC Team\n\nShare Among Friends And Relatives","torrent":{"xt":"urn:btih:075315d287beea311f5d3f5b03ce1bdee85da9eb","amp;dn":"Afrojack+-+SummerThing%21+ft.+Mike+Taylor+Full+HD+1080p+-+truHD+HE","amp;tr":["udp%3A%2F%2Ftracker.openbittorrent.com%3A80","udp%3A%2F%2Fopen.demonii.com%3A1337","udp%3A%2F%2Ftracker.coppersurfer.tk%3A6969","udp%3A%2F%2Fexodus.desync.com%3A6969"],"infoHash":"075315d287beea311f5d3f5b03ce1bdee85da9eb","infoHashBuffer":{"type":"Buffer","data":[7,83,21,210,135,190,234,49,31,93,63,91,3,206,27,222,232,93,169,235]},"announce":[],"urlList":[]}}